<?xml version="1.0" encoding="UTF-8"?>
<svg width="256" height="256" version="1.1" viewBox="0 0 256 256" xmlns="http://www.w3.org/2000/svg">
  <rect width="256" height="256" rx="32" fill="#2196f3"/>
  <g fill="#ffffff">
    <!-- Microphone icon -->
    <rect x="112" y="64" width="32" height="64" rx="16"/>
    <path d="m96 112v16c0 17.673 14.327 32 32 32s32-14.327 32-32v-16h16v16c0 24.853-19.03 45.237-43.2 47.77v16.23h16v16h-48v-16h16v-16.23c-24.17-2.533-43.2-22.917-43.2-47.77v-16z"/>
    <!-- Sound waves -->
    <path d="m64 96c0-4.418 3.582-8 8-8s8 3.582 8 8v32c0 4.418-3.582 8-8 8s-8-3.582-8-8z" opacity=".5"/>
    <path d="m176 96c0-4.418 3.582-8 8-8s8 3.582 8 8v32c0 4.418-3.582 8-8 8s-8-3.582-8-8z" opacity=".5"/>
  </g>
  <text x="128" y="230" font-family="sans-serif" font-size="24" font-weight="bold" text-anchor="middle" fill="#ffffff">VTC</text>
</svg>
